<svg width="38" height="22" viewBox="0 0 38 22" fill="none" xmlns="http://www.w3.org/2000/svg">
<path d="M11 22C13.9174 22 16.7153 20.8411 18.7782 18.7782C20.8411 16.7153 22 13.9174 22 11C22 8.08262 20.8411 5.28473 18.7782 3.22183C16.7153 1.15893 13.9174 5.68035e-07 11 0L11 11L11 22Z" fill="#FFC107"/>
<path d="M11 9.45698e-07C8.08262 6.90652e-07 5.28473 1.15892 3.22183 3.22182C1.15893 5.28472 -6.90653e-07 8.08262 -9.45698e-07 11C-1.20074e-06 13.9174 1.15892 16.7153 3.22182 18.7782C5.28472 20.8411 8.08262 22 11 22L11 11L11 9.45698e-07Z" fill="white" fill-opacity="0.12"/>
<path d="M37.5303 11.5303C37.8232 11.2374 37.8232 10.7626 37.5303 10.4697L32.7574 5.6967C32.4645 5.40381 31.9896 5.40381 31.6967 5.6967C31.4038 5.98959 31.4038 6.46447 31.6967 6.75736L35.9393 11L31.6967 15.2426C31.4038 15.5355 31.4038 16.0104 31.6967 16.3033C31.9896 16.5962 32.4645 16.5962 32.7574 16.3033L37.5303 11.5303ZM13 11.75H37V10.25H13V11.75Z" fill="#FFC107"/>
<path d="M11 7C10.4747 7 9.95457 7.10346 9.46927 7.30448C8.98396 7.5055 8.54301 7.80014 8.17157 8.17157C7.80014 8.54301 7.5055 8.98396 7.30448 9.46927C7.10346 9.95457 7 10.4747 7 11C7 11.5253 7.10346 12.0454 7.30448 12.5307C7.5055 13.016 7.80014 13.457 8.17157 13.8284C8.54301 14.1999 8.98396 14.4945 9.46927 14.6955C9.95457 14.8965 10.4747 15 11 15L11 11V7Z" fill="#FFC107"/>
<path d="M11 15C11.5253 15 12.0454 14.8965 12.5307 14.6955C13.016 14.4945 13.457 14.1999 13.8284 13.8284C14.1999 13.457 14.4945 13.016 14.6955 12.5307C14.8965 12.0454 15 11.5253 15 11C15 10.4747 14.8965 9.95457 14.6955 9.46927C14.4945 8.98396 14.1999 8.54301 13.8284 8.17157C13.457 7.80014 13.016 7.5055 12.5307 7.30448C12.0454 7.10346 11.5253 7 11 7L11 11L11 15Z" fill="#303B44"/>
</svg>
